<?xml version="1.0" encoding="utf-8" ?><svg xmlns="http://www.w3.org/2000/svg" xmlns:xlink="http://www.w3.org/1999/xlink" width="1024" height="1024" viewBox="0 0 1024 1024"><path transform="scale(2 2)" d="M252.691 79.2489C271.755 77.1975 279.51 92.5154 289.361 92.768C297.816 92.8648 305.328 86.587 312.894 83.6507C331.123 76.7559 349.138 81.6481 362.561 95.4561C382.212 115.672 380.474 141.815 380.438 168.347C389.773 180.258 397.053 199.896 405.428 213.803C414.187 228.348 426.613 237.531 427.754 255.982C429.861 290.045 387.82 341.234 361.559 363.309C356.447 367.606 350.658 370.231 348.772 376.949C346.309 385.722 348.103 395.931 351.495 404.213C353.155 408.267 363.132 424.482 349.149 416.381C339.528 410.806 325.966 416.411 315.858 419.216C302.929 422.805 289.844 426.725 276.588 428.902C274.266 429.523 269.893 430.122 267.447 430.47C228.907 435.937 187.442 430.001 155.691 406.273C107.395 370.181 95.2856 295.275 87.4735 239.736C84.859 221.149 81.9924 195.741 84.0357 177.041C89.3293 128.594 143.303 135.836 147.124 131.805C150.284 128.471 152.342 122.476 155.418 118.841C179.432 87.029 198.46 111.3 212.117 105.237C227.291 98.4996 228.503 82.9239 252.691 79.2489ZM138.737 324.005C138.699 348.434 145.636 371.349 161.236 390.594C165.396 395.725 170.709 400.745 175.24 405.667C217.565 433.961 288.517 404.54 335.384 404.013C332.462 395.382 331.331 390.568 331.238 381.231C327.407 382.259 306.503 383.06 315.564 376.572C316.167 376.14 321.002 375.644 322.241 375.128C329.049 372.288 339.915 366.857 345.071 361.499L345.326 361.232C347.566 353.016 357.566 339.325 361.401 330.168C366.821 317.226 369.341 303.013 376.421 291.203C383.809 278.88 410.603 258.439 402.33 243.723C397.443 235.03 390.572 232.027 381.864 229.059C372.927 237.556 332.446 209.537 317.526 221.618C306.014 230.94 312.191 249.934 320.177 259.401C326.659 267.085 338.751 271.849 348.576 273.32C362.301 275.375 377.504 265.019 380.956 265.813C382.241 266.109 383.193 267.53 382.969 268.813C382.271 272.813 366.458 278.542 362.748 280.988L362.348 281.255C369.809 283.055 371.051 289.781 362.348 286.715C352.954 291.837 361.659 307.344 358.954 311.043C358.114 312.192 355.664 312.333 354.866 310.943C345.105 275.182 332.846 287.283 313.529 267.7C303.236 275.095 291.927 280.104 285.304 291.741C274.24 311.181 275.899 336.117 286.528 355.379C288.147 358.313 290.876 360.607 292.764 363.341C294.364 365.659 290.829 368.506 288.595 367.327C278.991 361.969 273.112 344.132 271.129 333.698C267.315 314.99 271.231 298.8 277.756 281.255C271.82 280.284 261.259 278.452 257.144 273.747C242.984 294.285 216.133 301.844 193.642 290.078C186.869 303.614 174.026 309.505 159.3 309.561C120.98 309.708 118.109 254.98 111.559 227.19C110.79 223.926 100.133 211.082 101.963 206.431C105.198 198.209 109.419 210.528 111.224 213.404C114.187 192.964 121.626 203.971 118.241 209.971C120.921 213.273 125.911 236.813 127.467 242.508C130.998 255.427 132.635 273.462 140.98 284.355C146.57 291.653 162.242 286.996 168.26 281.487C176.68 273.779 171.151 262.72 169.144 253.42C164.78 233.186 160.55 220.51 161.047 199.564C156.072 193.328 161.088 190.384 164.247 193.77C164.818 189.256 162.809 167.65 166.074 165.563C172.911 161.192 170.603 176.824 170.631 179.248C170.938 205.757 181.883 238.609 188.168 264.566C189.67 265.099 192.04 266.315 193.43 267.088C204.799 273.404 219.463 272.275 228.89 262.961C242.207 249.804 232.196 231.209 228.322 214.687C224.468 198.251 222.635 185.348 223.048 168.347C222.1 166.087 220.998 163.642 223.956 162.083C226.802 160.582 230.926 167.966 234.054 169.916C234.076 167.799 235.287 130.235 243.291 140.108C245.083 142.317 241.896 150.391 241.584 153.097C238.62 178.861 242.892 213.741 249.337 239.555C260.283 250.369 278.556 249.983 290.955 242.344C303.828 234.413 298.147 221.634 296.431 210.101C294.523 197.283 295.081 173.267 298.504 160.102C297.388 158.09 292.471 152.295 293.327 150.489C296.516 143.76 304.806 158.523 306.882 161.192C306.333 157.42 302.45 139.883 308.257 139.238C311.345 138.894 311.52 141.298 311.38 143.71C310.964 147.794 313.793 167.87 315.203 172.75C321.908 195.948 346.513 179.683 348.922 181.1C350.926 165.167 351.419 159.775 349.604 143.174C348.038 128.842 345.884 112.144 345.999 97.8093C330.645 87.7608 319.849 93.8267 305.877 100.535C275.058 115.331 271.623 87.8215 252.558 91.8303C238.017 94.8877 230.203 110.433 216.904 116.24C192.164 127.042 187.811 97.2765 164.247 127.45C163.642 129.339 162.378 131.139 161.429 132.862C153.981 146.382 147.849 147.125 133.796 148.985C111.935 151.879 103.839 164.492 100.575 184.387C97.4181 203.632 98.4834 221.849 102.376 241.059C107.602 266.846 113.936 293.352 130.366 314.464C132.857 317.665 136.495 320.79 138.737 324.005ZM320.759 188.81C320.277 212.723 344.249 216.619 348.922 186.436C338.903 192.17 331.792 193.924 320.759 188.81Z"/><path transform="scale(2 2)" d="M218.191 305.756C222.13 306.819 223.03 313.409 223.931 316.816C229.149 336.552 229.002 357.791 225.999 377.874C225.536 380.931 225.213 387.469 222.002 388.952C215.164 388.589 220.071 375.888 220.741 370.143C222.889 351.721 222.424 332.574 216.985 314.734C215.887 311.132 213.205 307.415 218.191 305.756Z"/><path transform="scale(2 2)" d="M245.359 324.005C251.151 322.939 251.064 340.513 252.157 345.639C254.043 354.487 254.974 392.953 247.867 398.096C240.409 399.205 246.635 383.31 246.98 377.724C248.033 360.68 246.421 343.745 243.146 327.014C242.772 325.101 243.727 324.502 245.359 324.005Z"/><path transform="scale(2 2)" d="M325.784 225.712C331.158 225.095 344.776 244.011 364.429 238.849C371.006 237.121 375.447 240.291 369.786 244.082C347.2 251.4 316.763 231.559 325.784 225.712Z"/><path fill="#EA7DFF" transform="scale(2 2)" d="M378.64 186.436C387.554 201.046 393.674 214.41 404.078 229.15C412.675 241.328 421.308 250.987 416.769 266.845C406.736 301.891 373.143 338.714 345.864 360.925C345.684 361.027 345.505 361.13 345.326 361.232C347.566 353.016 357.566 339.325 361.401 330.168C366.821 317.226 369.341 303.013 376.421 291.203C383.809 278.88 410.603 258.439 402.33 243.723C397.443 235.03 390.572 232.027 381.864 229.059C383.543 222.886 373.6 223.676 369.786 223.049C372.039 211.197 377.351 198.984 378.64 186.436Z"/><path fill="#EA7DFF" transform="scale(2 2)" d="M175.24 405.667C170.848 405.104 154.694 391.022 150.889 387.094C115.463 350.527 102.631 279.247 96.479 231.146C94.7711 217.792 93.4229 204.239 93.5139 190.96C93.7389 158.115 105.088 145.705 136.946 142.88C141.964 142.436 147.973 143.473 152.394 141.168C157.635 138.434 160.594 131.046 164.247 127.45C163.642 129.339 162.378 131.139 161.429 132.862C153.981 146.382 147.849 147.125 133.796 148.985C111.935 151.879 103.839 164.492 100.575 184.387C97.4181 203.632 98.4834 221.849 102.376 241.059C107.602 266.846 113.936 293.352 130.366 314.464C132.857 317.665 136.495 320.79 138.737 324.005C138.699 348.434 145.636 371.349 161.236 390.594C165.396 395.725 170.709 400.745 175.24 405.667Z"/><path fill="#EA7DFF" transform="scale(2 2)" d="M345.999 97.8093C362.026 106.64 366.273 121.571 367.71 138.282C369.659 160.932 369.443 186.113 361.089 207.55C356.829 215.747 330.369 212.687 323.122 208.772C315.913 204.878 315.768 192.022 316.083 184.922C317.739 186.563 318.871 187.399 320.759 188.81C320.277 212.723 344.249 216.619 348.922 186.436C351.129 184.667 350.981 182.846 348.922 181.1C350.926 165.167 351.419 159.775 349.604 143.174C348.038 128.842 345.884 112.144 345.999 97.8093Z"/><path fill="#EA7DFF" transform="scale(2 2)" d="M298.504 160.102C301.346 164.092 305.338 168.939 307.783 172.822C307.787 180.969 308.902 218.286 307.071 223.461C303.106 234.668 303.512 244.436 308.957 255.377C301.744 262.55 291.242 269.39 280.594 269.6C271.948 269.771 257.728 263.377 253.638 255.301C252.369 252.796 249.036 242.127 249.337 239.555C260.283 250.369 278.556 249.983 290.955 242.344C303.828 234.413 298.147 221.634 296.431 210.101C294.523 197.283 295.081 173.267 298.504 160.102Z"/><path fill="#EA7DFF" transform="scale(2 2)" d="M161.047 199.564C162.365 200.698 166.371 204.194 166.705 205.771C171.09 226.465 176.482 246.98 181.619 267.509C182.337 270.379 183.859 274.086 184.232 277.108C183.129 290.426 173.036 299.628 159.702 299.673C132.129 300.313 123.915 256.913 120.628 236.195C119.547 229.38 116.694 216.566 118.241 209.971C120.921 213.273 125.911 236.813 127.467 242.508C130.998 255.427 132.635 273.462 140.98 284.355C146.57 291.653 162.242 286.996 168.26 281.487C176.68 273.779 171.151 262.72 169.144 253.42C164.78 233.186 160.55 220.51 161.047 199.564Z"/><path fill="#EA7DFF" transform="scale(2 2)" d="M223.048 168.347C227.551 172.555 228.7 174.442 234.054 178.618C233.36 196.069 239.619 230.399 243.596 246.815C246.104 257.166 247.613 266.811 238.336 275.219C232.609 280.409 220.878 285.458 213.239 285.222C206.032 284.998 189.211 272.512 188.168 264.566C189.67 265.099 192.04 266.315 193.43 267.088C204.799 273.404 219.463 272.275 228.89 262.961C242.207 249.804 232.196 231.209 228.322 214.687C224.468 198.251 222.635 185.348 223.048 168.347Z"/></svg>