<?xml version="1.0" encoding="utf-8" ?><svg xmlns="http://www.w3.org/2000/svg" xmlns:xlink="http://www.w3.org/1999/xlink" width="1024" height="1024" viewBox="0 0 1024 1024"><path transform="scale(2 2)" d="M119.221 82.685C99.4788 96.9351 84.9786 117.007 75.6405 139.277C72.8115 146.023 71.7223 137.299 74.2609 130.288C91.0375 84.1612 133.094 52.3848 180.577 43.1484C317.856 16.4445 408.627 180.531 320.458 287.228C327.643 298.776 337.31 309.032 344.459 320.332C350.236 319.609 356.005 319.279 360.696 323.491C382.21 342.806 403.668 362.642 423.76 383.361C442.805 403.001 466.825 425.878 445.091 453.528C431.239 471.457 405.759 474.766 388.45 459.278C360.513 434.279 339.475 402.405 317.568 372.27C312.021 364.639 310.64 361.627 312.15 352.28C308.624 345.374 296.474 330.503 291.153 323.663C221.619 368.523 129.827 353.224 83.9365 281.807C61.9823 247.641 54.0308 205.272 61.9796 165.401C62.6943 161.816 66.0211 146.111 69.6345 145.856C71.6488 146.601 71.6118 149.327 71.354 151.159C68.2492 171.867 66.9058 184.084 69.4216 205.759C76.9474 270.6 129.735 317.067 194.006 324.401C191.618 322.456 179.903 317.831 175.971 315.775C160.508 307.69 138.225 291.15 128.253 276.203C95.5123 247.154 81.7602 202.239 92.6247 159.84C103.489 117.44 137.147 84.6735 179.822 74.9496C222.498 65.2258 267.028 80.1771 295.188 113.685C290.173 92.3071 255.376 72.7759 236.093 66.561C209.009 57.832 175.653 57.7091 148.734 67.6C138.143 71.4915 129.216 77.5424 119.465 82.5619L119.221 82.685ZM128.253 276.203C138.225 291.15 160.508 307.69 175.971 315.775C179.903 317.831 191.618 322.456 194.006 324.401C129.735 317.067 76.9474 270.6 69.4216 205.759C66.9058 184.084 68.2492 171.867 71.354 151.159C71.6118 149.327 71.6488 146.601 69.6345 145.856C66.0211 146.111 62.6943 161.816 61.9796 165.401C54.0308 205.272 61.9823 247.641 83.9365 281.807C129.827 353.224 221.619 368.523 291.153 323.663C296.474 330.503 308.624 345.374 312.15 352.28C310.64 361.627 312.021 364.639 317.568 372.27C339.475 402.405 360.513 434.279 388.45 459.278C405.759 474.766 431.239 471.457 445.091 453.528C466.825 425.878 442.805 403.001 423.76 383.361C403.668 362.642 382.21 342.806 360.696 323.491C356.005 319.279 350.236 319.609 344.459 320.332C337.31 309.032 327.643 298.776 320.458 287.228C408.627 180.531 317.856 16.4445 180.577 43.1484C133.094 52.3848 91.0375 84.1612 74.2609 130.288C71.7223 137.299 72.8115 146.023 75.6405 139.277C84.9786 117.007 99.4788 96.9351 119.221 82.685L119.465 82.5619C129.216 77.5424 138.143 71.4915 148.734 67.6C175.653 57.7091 209.009 57.832 236.093 66.561C255.376 72.7759 290.173 92.3071 295.188 113.685C334.562 160.535 331.098 229.834 287.248 272.524C243.397 315.214 174.031 316.819 128.253 276.203ZM187.507 291.425C203.654 293.832 217.56 293.83 233.554 289.807C330.142 262.911 336.792 133.649 247.4 92.8209C246.014 92.1876 243.889 91.4352 242.643 90.7137C201.54 113.016 177.324 148.485 171.178 194.467C166.695 228.002 168.92 262.386 187.507 291.425Z"/><path transform="scale(2 2)" d="M119.221 82.685C99.4788 96.9351 84.9786 117.007 75.6405 139.277C72.8115 146.023 71.7223 137.299 74.2609 130.288C91.0375 84.1612 133.094 52.3848 180.577 43.1484C317.856 16.4445 408.627 180.531 320.458 287.228C327.643 298.776 337.31 309.032 344.459 320.332C350.236 319.609 356.005 319.279 360.696 323.491C382.21 342.806 403.668 362.642 423.76 383.361C442.805 403.001 466.825 425.878 445.091 453.528C431.239 471.457 405.759 474.766 388.45 459.278C360.513 434.279 339.475 402.405 317.568 372.27C312.021 364.639 310.64 361.627 312.15 352.28C308.624 345.374 296.474 330.503 291.153 323.663C221.619 368.523 129.827 353.224 83.9365 281.807C61.9823 247.641 54.0308 205.272 61.9796 165.401C62.6943 161.816 66.0211 146.111 69.6345 145.856C71.6488 146.601 71.6118 149.327 71.354 151.159C68.2492 171.867 66.9058 184.084 69.4216 205.759C76.9474 270.6 129.735 317.067 194.006 324.401C191.618 322.456 179.903 317.831 175.971 315.775C160.508 307.69 138.225 291.15 128.253 276.203C174.031 316.819 243.397 315.214 287.248 272.524C331.098 229.834 334.562 160.535 295.188 113.685C290.173 92.3071 255.376 72.7759 236.093 66.561C209.009 57.832 175.653 57.7091 148.734 67.6C138.143 71.4915 129.216 77.5424 119.465 82.5619L119.221 82.685ZM404.842 454.711C408.279 453.81 408.407 452.651 410.459 449.812C401.279 445.674 408.383 440.799 414.179 438.177C412.789 434.924 411.505 432.066 409.506 429.142C401.657 432.958 388.434 430.34 392.589 424.662C394.451 422.119 399.764 421.928 402.713 421.386C398.156 415.306 389.618 407.14 384.195 401.422L352.464 367.739C344.934 359.586 337.741 351.987 331.092 343.098C317.868 357.549 317.101 360.031 328.054 373.023L339.891 387.332C349.188 398.414 393.789 453.653 404.842 454.711ZM93.68 278.9C89.7816 283.062 99.5762 290.618 103.118 291.425C106.344 288.134 96.4442 279.089 93.68 278.9ZM299.808 306.387L295.736 309.254L311.404 330.233C313.655 333.248 316.098 336.22 318.226 339.301C319.477 337.395 320.585 336.239 322.297 334.712C314.268 325.783 308.002 315.22 299.808 306.387ZM113.784 299.16C111.893 302.308 116.189 303.933 118.541 305.733C141.23 323.1 177.584 338.816 206.055 336.674C207.882 333.98 204.743 332.454 202.498 332.429C177.466 332.146 153.187 324.347 132.2 310.804C128.514 308.425 117.214 299.18 113.784 299.16Z"/><path fill="#EA7DFF" transform="scale(2 2)" d="M119.221 82.685C120.456 80.1933 123.841 78.7806 126.021 77.2463C196.331 27.7703 295.551 53.9565 330.832 132.948C364.763 208.918 325.43 298.867 244.123 320.436C233.533 323.245 205.04 327.416 194.006 324.401C191.618 322.456 179.903 317.831 175.971 315.775C160.508 307.69 138.225 291.15 128.253 276.203C174.031 316.819 243.397 315.214 287.248 272.524C331.098 229.834 334.562 160.535 295.188 113.685C290.173 92.3071 255.376 72.7759 236.093 66.561C209.009 57.832 175.653 57.7091 148.734 67.6C138.143 71.4915 129.216 77.5424 119.465 82.5619L119.221 82.685Z"/><path fill="#EA7DFF" transform="scale(2 2)" d="M331.092 343.098C336.831 337.115 349.16 326.536 356.856 334.21C373.162 350.609 390.027 366.45 406.107 383.075C416.465 393.783 427.866 404.811 436.325 417.162C452.767 442.274 420.586 463.833 404.842 454.711C408.279 453.81 408.407 452.651 410.459 449.812C401.279 445.674 408.383 440.799 414.179 438.177C412.789 434.924 411.505 432.066 409.506 429.142C401.657 432.958 388.434 430.34 392.589 424.662C394.451 422.119 399.764 421.928 402.713 421.386C398.156 415.306 389.618 407.14 384.195 401.422L352.464 367.739C344.934 359.586 337.741 351.987 331.092 343.098Z"/><path transform="scale(2 2)" d="M402.713 421.386C413.296 416.233 414.513 402.348 419.794 403.987C424.759 405.527 421.985 414.186 420.651 417.365C418.373 422.796 414.227 425.972 409.506 429.142C401.657 432.958 388.434 430.34 392.589 424.662C394.451 422.119 399.764 421.928 402.713 421.386Z"/><path transform="scale(2 2)" d="M414.179 438.177C419.134 435.512 423.99 422.248 428.854 423.822C432.487 424.998 432.563 428.246 431.602 431.103C428.097 441.518 420.689 447.33 410.459 449.812C401.279 445.674 408.383 440.799 414.179 438.177Z"/><path fill="#EA7DFF" transform="scale(2 2)" d="M311.135 295.987C318.931 305.458 325.394 316.386 333.405 325.526C329.128 328.94 326.143 330.605 322.297 334.712C314.268 325.783 308.002 315.22 299.808 306.387C304.049 302.655 307.256 300.213 311.135 295.987Z"/><path transform="scale(2 2)" d="M282.706 208.016C300.535 205.815 274.197 256.835 260.366 262.101C255.53 263.052 253.307 258.188 254.688 253.905C265.319 242.699 269.894 238.66 275.472 222.496C277.324 217.129 277.189 209.733 282.706 208.016Z"/><path transform="scale(2 2)" d="M284.683 146.023C294.323 145.728 297.832 173.843 297.748 180.347C296.171 182.974 295.651 183.447 292.661 184.249C288.077 184.248 286.951 180.579 286.668 176.789C285.821 165.437 281.997 160.17 279.656 150.714C280.807 147.803 281.6 146.77 284.683 146.023Z"/><path fill="#EA7DFF" transform="scale(2 2)" d="M206.055 84.704C214.96 84.2814 221.77 86.2842 230.281 86.8338C164.097 126.678 142.05 220.391 174.713 288.259C165.991 285.554 159.288 284.731 155.558 276.45C145.371 253.832 141.06 228.973 143.906 204.273C144.293 200.916 145.577 195.242 141.037 194.37C134.682 193.15 135.687 202.329 135.083 206.149C133.482 225.759 135.611 245.955 141.737 264.671C142.228 266.173 145 273.304 144.922 273.855L144.442 273.754C141.322 271.676 138.599 269.161 135.815 266.677C73.5281 211.11 100.02 104.952 181.775 87.1768C185.642 86.3359 189.379 85.8961 193.194 84.704C191.946 86.3751 190.548 87.9117 189.102 89.3969C184.985 93.6245 139.737 144.515 156.613 146.936C159.619 147.217 161.119 143.038 162.197 140.91C172.527 120.515 189.247 100.447 206.055 84.704Z"/><path transform="scale(2 2)" d="M147.524 158.237C156.928 157.985 150.396 172.718 147.524 174.639C137.662 175.684 143.188 160.885 147.524 158.237Z"/></svg>