<?xml version="1.0" encoding="utf-8" ?><svg xmlns="http://www.w3.org/2000/svg" xmlns:xlink="http://www.w3.org/1999/xlink" width="1024" height="1024" viewBox="0 0 1024 1024"><path transform="scale(2 2)" d="M175.69 64.542C191.549 63.8731 192.296 85.7965 192.25 96.7505C195.519 96.8294 198.401 96.8445 201.668 96.7505C203.372 86.8641 202.072 67.5128 215.169 65.2079C230.158 62.5701 233.065 88.4889 234.355 98.2247C237.731 97.9768 245.741 98.4161 249.114 98.7874C250.57 91.0093 253.644 68.1355 267.137 72.1366C277.739 75.2803 278.699 92.0386 279.186 100.692C283.729 101.247 288.327 101.289 292.895 101.668C298.2 64.9157 316.698 67.8675 321.509 103.88C327.207 104.847 330.225 104.103 336.298 105.966C337.428 98.1964 340.479 87.5916 345.818 82.0437C357.723 69.6721 366.505 90.9107 366.274 101.05C366.223 103.268 365.805 105.249 365.748 107.371L365.743 107.647C369.865 108.696 377.121 108.818 382.136 109.927C411.293 115.222 408.549 141.333 407.824 165.083C407.302 182.159 405.834 199.387 404.568 216.379C400.4 272.342 396.083 328.829 385.214 383.946C378.228 415.72 370.299 445.999 331.112 447.465C277.188 450.406 200.174 419.821 147.101 407.066C134.3 403.989 118.216 404.489 110.271 392.091C98.9146 374.486 109.784 334.726 113.559 315.114C125.006 255.644 130.968 195.248 136.165 134.961C138.02 113.435 136.088 101.463 160.386 96.7505C162.999 86.7944 163.799 68.0232 175.69 64.542ZM116.251 373.4C127.29 380.112 140.894 378.535 153.242 380.617C180.907 385.281 208.349 389.872 235.534 396.943L253.248 401.456C260.221 403.216 262.713 404.72 269.747 403.036C288.038 398.659 298.554 386.488 297.613 367.423C297.502 365.168 297.379 360.838 297.632 358.548C284.723 352.008 299.721 341.398 304.054 352.335C308.368 351.833 316.044 350.181 320.065 348.722C334.82 343.39 343.945 335.223 356.152 326.497C358.335 306.387 363.193 288.363 365.989 269.017C371.466 224.867 375.951 180.358 376.542 135.846C376.697 124.144 377.275 120.126 364.146 118.916C361.342 126.947 358.096 139.868 349.934 143.911C343.767 146.966 336.037 143.654 333.468 137.431C331.1 131.693 332.743 122.372 334.272 116.488C330.535 115.416 325.446 115.092 321.509 114.9C321.5 128.063 305.818 153.433 293.526 140.039C287.788 133.787 289.62 120.121 291.262 112.492C286.858 112.182 283.459 111.493 279.186 112.492L279.047 112.822C277.992 115.378 277.282 119.398 276.557 122.14C273.887 132.235 264.283 145.579 252.199 140.852C239.438 135.86 244.985 119.21 246.975 109.49C243.425 109.267 237.71 108.72 234.355 108.731C232.1 121.045 227.804 140.635 210.853 137.444C197.389 134.908 199.812 117.309 200.883 107.647C197.747 107.567 194.527 107.411 191.404 107.647L191.038 107.988C189.249 118.02 187.911 130.047 178.914 136.654C172.249 141.548 162.152 139.878 157.622 132.898C152.49 125.074 158.341 115.829 160.386 108.052C156.206 108.185 149.496 109.093 148.719 114.264C146.681 127.884 146.753 141.854 145.536 155.584C140.464 212.842 134.397 269.923 123.026 326.326C120.155 340.563 116.015 358.934 116.251 373.4ZM372.747 319.055C366.507 330.079 369.476 333.511 370.209 345.174C370.717 353.26 371.159 362.653 370.79 370.757C366.779 365.981 364.478 355.911 361.802 349.873C362.616 365.956 362.477 384.379 362.855 400.864C357.598 393.179 353.206 375.805 353.567 366.502C348.385 381.059 347.893 404.953 352.231 418.995C342.326 411.229 339.721 394.742 338.9 382.897C328.334 403.625 338.553 419.138 336.357 426.499L335.994 426.55C330.817 421.998 325.673 408.383 323.491 401.93C312.787 414.07 322.666 423.478 320.397 426.584C315.398 427.334 308.511 413.433 306.731 410.101C297.618 417.221 305.974 423.571 304.46 426.033C300.581 426.721 293.463 418.686 291.262 416.074C289.792 416.516 288.377 416.972 286.87 417.265C287.084 419.536 288.966 423.941 288.559 425.656C288.249 425.792 261.28 414.856 257.941 412.925C257.608 413.024 256.013 412.938 255.56 412.925C257.258 414.433 264.676 419.454 264.144 421.789C259.676 423.713 234.543 408.213 225.816 405.953C229.005 409.773 233.357 412.947 235.294 417.265C234.27 416.985 232.931 416.598 231.996 416.118C218.191 409.034 204.81 404.937 191.404 398.753C192.337 400.034 196.088 405.085 191.782 404.288C182.406 402.552 165.473 396.714 157.146 397.973C162.224 399.53 167.459 400.866 172.603 402.205C217.48 413.881 266.537 432.011 312.607 435.912C354.412 439.453 363.9 425.082 373.681 387.254C383.316 349.992 387.645 312.905 391.4 274.709C393.191 254.229 404.853 143.6 392.82 128.488C393.134 130.298 393.79 132.926 393.821 134.672C394.741 186.067 390.781 237.647 383.609 288.527C381.726 301.883 378.545 315.03 378.055 328.475C377.959 331.117 378.216 335.063 377.751 337.506L377.422 337.911C374.682 337.337 373.115 322.013 372.747 319.055ZM259.011 99.7824L264.297 99.7824C265.524 99.7871 266.822 99.8158 268.043 99.7824C267.936 96.525 266.926 82.4257 264.297 81.1836C260.766 85.3154 259.932 94.3436 259.011 99.7824ZM306.731 84.6309C303.975 88.4028 303.051 97.6842 302.4 102.597C302.971 102.591 305.771 102.532 306.124 102.597C307.467 102.628 308.696 102.672 310.042 102.597C310.015 98.7418 309.049 88.0987 307.155 84.9135L306.731 84.6309ZM347.02 105.966L350.601 106.822C352.401 106.71 353.452 106.622 355.255 106.822C355.288 101.088 355.157 93.8407 352.558 88.5977L352.231 88.396C349.403 94.3911 347.944 99.4564 347.02 105.966ZM181.611 96.7505C181.833 92.528 181.262 76.8028 176.374 74.882C172.68 79.6438 170.494 90.6518 169.512 96.7505L175.69 96.7505L181.611 96.7505ZM223.45 96.7505C221.55 92.4337 221.455 75.707 215.68 74.0971C212.321 78.6011 211.124 90.9268 210.527 96.7505C214.047 97.1868 214.704 97.2427 218.146 96.7505C220.02 96.8068 221.578 96.8149 223.45 96.7505Z"/><path transform="scale(2 2)" d="M171.859 181.701C211.087 180.54 272.798 196.76 309.544 210.281C314.348 212.049 319.183 213.675 323.491 216.324C321.786 216.486 320.019 216.422 318.313 216.324C309.954 216.159 298.65 213.23 290.394 211.595C254.851 204.557 219.203 195.994 182.947 193.716C178.934 193.464 170.235 194.62 168.335 190.589C166.407 186.499 168.017 183.618 171.859 181.701Z"/><path transform="scale(2 2)" d="M171.859 218.091C181.313 218.285 191.643 220.157 201.105 221.33C228.191 224.689 293.192 236.778 317.061 251.577C315.085 251.725 313.46 251.647 311.475 251.577C296.884 251.19 275.005 244.857 260.187 242.149C230.256 236.679 200.385 233.287 170.3 229.22C167.397 228.828 164.293 219.415 171.859 218.091Z"/><path transform="scale(2 2)" d="M171.859 251.577C178.266 251.323 186.244 253.266 193.363 254.154C224.879 258.085 256.12 265.375 285.968 276.291C289.513 277.588 308.394 284.546 309.197 286.116L308.908 286.506C307.602 286.953 306.176 286.771 304.763 286.721C289.257 285.07 273.316 279.964 257.923 276.733C249.716 275.011 169.561 262.476 169.164 262.099C165.303 258.437 166.182 252.918 171.859 251.577Z"/><path transform="scale(2 2)" d="M170.971 286.721C172.55 286.191 174.889 286.136 176.567 286.334C212.693 290.598 248.54 298.19 282.498 311.43C290.124 314.403 297.38 316.37 304.763 320.253C303.183 320.49 300.714 320.315 299.037 320.253C291.825 320.29 281.993 317.671 274.767 316.026L252.975 311.214C235.582 307.436 217.884 304.355 200.325 301.414C190.911 299.838 181.197 299.374 171.863 297.506C164.943 296.122 163.48 287.67 170.971 286.721Z"/><path transform="scale(2 2)" d="M168.453 320.253C173.965 320.123 180.144 321.136 185.629 321.946C206.377 325.01 265.69 338.635 281.92 351.507L277.489 351.507C269.022 351.126 255.445 347.285 246.9 345.383C219.752 339.077 195.254 335.664 168.03 331.373C163.429 330.648 162.245 322.766 168.453 320.253Z"/><path fill="#EA7DFF" transform="scale(2 2)" d="M386.67 123.629C389.758 124.855 390.868 125.834 392.82 128.488C393.134 130.298 393.79 132.926 393.821 134.672C394.741 186.067 390.781 237.647 383.609 288.527C381.726 301.883 378.545 315.03 378.055 328.475C377.959 331.117 378.216 335.063 377.751 337.506L377.422 337.911C374.682 337.337 373.115 322.013 372.747 319.055C366.507 330.079 369.476 333.511 370.209 345.174C370.717 353.26 371.159 362.653 370.79 370.757C366.779 365.981 364.478 355.911 361.802 349.873C362.616 365.956 362.477 384.379 362.855 400.864C357.598 393.179 353.206 375.805 353.567 366.502C348.385 381.059 347.893 404.953 352.231 418.995C342.326 411.229 339.721 394.742 338.9 382.897C328.334 403.625 338.553 419.138 336.357 426.499L335.994 426.55C330.817 421.998 325.673 408.383 323.491 401.93C312.787 414.07 322.666 423.478 320.397 426.584C315.398 427.334 308.511 413.433 306.731 410.101C297.618 417.221 305.974 423.571 304.46 426.033C300.581 426.721 293.463 418.686 291.262 416.074C289.792 416.516 288.377 416.972 286.87 417.265C287.084 419.536 288.966 423.941 288.559 425.656C288.249 425.792 261.28 414.856 257.941 412.925C258.361 412.733 259.331 412.426 259.751 412.541C307.912 425.721 340.648 383.483 358.937 345.1C361.243 339.893 364.765 333.893 366.099 328.344C369.177 315.551 370.952 302.303 373.075 289.309C375.234 276.099 377.615 263.201 378.921 249.876L380.769 231.983C383.482 206.036 386.148 181.434 386.822 155.155C387.089 144.758 389.074 133.93 386.67 123.629Z"/><path fill="#EA7DFF" transform="scale(2 2)" d="M347.02 346.493L347.184 346.642C347.124 347.578 339.408 360.332 338.429 361.684C328.006 376.08 310.058 396.673 292.895 402.778L294.294 400.864C305.656 386.315 307.573 374.356 302.4 356.45C317.494 360.504 334.258 354.45 347.02 346.493Z"/><path fill="#EA7DFF" transform="scale(2 2)" d="M118.655 385.245C126.636 387.969 130.325 388.674 138.805 389.015C159.492 389.846 248.22 407.581 255.56 412.925C257.258 414.433 264.676 419.454 264.144 421.789C259.676 423.713 234.543 408.213 225.816 405.953C229.005 409.773 233.357 412.947 235.294 417.265C234.27 416.985 232.931 416.598 231.996 416.118C218.191 409.034 204.81 404.937 191.404 398.753C192.337 400.034 196.088 405.085 191.782 404.288C182.406 402.552 165.473 396.714 157.146 397.973C155.312 397.662 153.278 397.153 151.455 396.656C141.56 393.96 124.814 394.034 118.933 385.648L118.655 385.245Z"/><path fill="#EA7DFF" transform="scale(2 2)" d="M209.12 108.052L223.45 108.052C222.766 113.471 221.281 119.88 218.146 124.442C217.703 124.996 216.251 126.638 215.659 126.975C204.261 133.452 208.243 112.413 209.12 108.052Z"/><path fill="#EA7DFF" transform="scale(2 2)" d="M256.646 110.272C260.493 110.287 264.188 110.351 268.043 110.272C267.149 118.359 265.629 123.622 260.699 130.069C259.275 131.224 257.418 132.682 255.469 132.486C248.248 131.76 255.922 114.671 256.646 110.272Z"/><path fill="#EA7DFF" transform="scale(2 2)" d="M173.883 107.647C176.107 107.52 178.263 107.597 180.486 107.647C179.691 113.609 176.238 126.554 170.971 130.069C169.215 130.369 164.056 129.303 164.639 126.557C166.164 119.368 168.535 115.188 168.453 107.647C170.251 107.675 172.082 107.652 173.883 107.647Z"/><path fill="#EA7DFF" transform="scale(2 2)" d="M302.4 113.024C305.314 113.011 308.562 113.489 311.475 113.855C309.631 120.645 309.042 122.253 306.124 128.488C296.582 140.9 301.355 117.066 302.4 113.024Z"/><path fill="#EA7DFF" transform="scale(2 2)" d="M344.63 116.488C347.637 116.777 350.575 117.196 353.567 117.608C351.32 121.747 349.98 126.434 347.743 130.701C346.235 132.978 345.394 133.413 342.815 134.068C342.262 128.136 344.032 122.525 344.63 116.488Z"/></svg>