<?xml version="1.0" encoding="utf-8" ?><svg xmlns="http://www.w3.org/2000/svg" xmlns:xlink="http://www.w3.org/1999/xlink" width="1024" height="1024" viewBox="0 0 1024 1024"><path transform="scale(2 2)" d="M242.195 53.3232C271.803 50.2542 274.541 91.5199 277.814 111.89C280.157 126.473 282.28 141.601 284.368 156.244L286.669 172.891C287.046 175.537 287.451 179.064 288.049 181.615L288.131 181.959C287.577 155.574 285.723 131.085 284.366 104.893C283.83 94.5383 284.099 82.2021 291.462 74.1814C299.044 65.9226 313.248 65.9756 321.044 73.9299C343.553 96.3774 341.217 179.697 340.226 211.625C340.13 214.725 339.898 218.066 340.004 221.139L340.017 221.446C344.643 203.287 346.999 184.307 349.727 165.769C352.07 149.843 353.496 116.241 378.478 119.83C416.887 126.321 393.892 214.524 385.854 236.332C379.609 253.273 380.477 256.266 381.245 274.056L382.918 305.99C385.001 342.902 387.218 418.71 353.859 442.915C331.169 459.379 291.113 460.871 264.444 457.437C210.29 449.605 240.138 428.199 222.638 407.486C215.804 399.397 204.35 395.452 195.661 389.429C153.13 360.201 166.781 296.404 112.136 267.334C101.87 261.873 88.7984 255.874 94.372 240.89C101.235 223.606 121.376 220.704 137.229 224.775C179.75 235.692 183.394 276.764 200.131 283.001C205.706 271.841 201.333 261.279 198.078 250.141L191.454 227.371C185.533 206.679 180.333 185.681 176.324 164.132C172.588 144.056 161.321 93.8767 187.833 84.7594C218.578 74.1865 221.827 128.304 225.279 145.688C228.176 160.276 231.492 174.991 235.686 189.343C235.599 186.932 235.019 183.678 234.659 181.219L232.473 166.68C229.203 144.959 226.143 123.039 223.792 101.193C222.012 84.6543 220.386 57.3146 242.195 53.3232ZM207.879 293.502C220.01 299.3 234.206 301.119 247.463 307.827C248.956 308.582 250.73 309.414 252.305 309.987C275.837 303.589 299.915 306.23 321.378 317.875C334.161 325.684 337.729 335.603 322.193 325.59C301.87 312.492 281.81 311.896 259.063 314.629C277.659 330.38 286.206 348.255 288.273 372.935C288.477 375.367 290.572 410.582 282.499 402.619C280.569 400.715 282.224 393.372 282.31 390.889C284.143 338.512 266.061 319.091 218.982 303.949C197.616 297.077 188.015 292.528 176.04 273.414C168.009 260.597 160.53 248.292 146.7 240.857C135.82 235.008 118.512 231.047 108.397 240.493C97.8759 250.318 114.555 255.453 120.562 258.867C131.852 265.283 141.54 274.114 149.547 284.289C168.758 310.194 171.304 342.072 188.112 365.596C205.093 389.363 239.286 387.614 241.195 424.315C242.185 443.334 245.505 442.633 265.003 445.522C286.979 448.777 328.067 447.309 346.398 433.692C385.798 404.423 366.855 298.885 369.531 250.65C369.866 244.614 372.672 238.65 374.681 233.003C382.083 212.193 401.914 135.782 374.86 131.041C363.872 134.384 363.44 152.166 362.227 161.541C359.291 184.216 355.851 206.259 350.517 228.559C348.96 235.067 345.894 248.596 335.339 243.04C327.633 238.984 328.48 224.061 328.47 216.375L328.664 193.801C328.826 176.307 331.692 76.4221 303.706 80.1629C296.246 81.1602 295.181 96.3003 295.776 102.515C299.5 141.435 301.436 179.991 298.903 219.096C297.768 236.636 284.621 237.649 281.865 219.582C275.988 181.047 269.858 142.582 264.818 103.926C263.4 93.0558 259.562 65.1684 245.607 64.6021C230.051 66.0974 234.756 95.2537 236.003 105.67C240.17 140.497 245.88 174.905 251.562 209.478C252.753 216.727 257.914 234.043 246.278 235.859C232.539 237.859 217.723 167.816 215.64 157.962C211.875 140.147 210.19 120.722 204.243 103.468C202.088 97.2187 192.176 91.6337 187.177 98.7772C172.323 121.144 198.623 209.806 206.871 238.148C212.838 258.655 219.629 273.097 207.879 293.502Z"/><path fill="#EA7DFF" transform="scale(2 2)" d="M361.294 300.645C364.187 302.585 364.922 317.712 365.236 321.053C367.225 342.193 368.523 384.332 356.701 402.41C349.063 414.089 333.852 420.574 321.398 412.21C308.277 403.398 305.25 386.847 302.427 372.445L298.058 349.098C297.571 346.811 295.535 339.275 296.798 337.627L297.405 337.713C304.084 342.575 313.418 368.973 315.546 377.566C317.521 385.539 319.428 414.202 334.081 406.036C353.131 395.418 357.584 339.876 359.496 319.817C360.092 313.563 359.398 306.683 361.294 300.645Z"/><path fill="#EA7DFF" transform="scale(2 2)" d="M174.089 304.149C174.877 304.801 176.989 309.588 177.501 310.734C186.698 331.293 196.182 352.053 215.153 365.571C233.483 377.598 259.817 391.254 249.376 419.313C248.994 420.359 248.345 421.463 247.81 422.456C246.512 417.176 246.561 413.374 244.358 407.851C231.127 372.269 186.788 389.376 175.459 318.779C174.677 313.902 173.79 309.113 174.089 304.149Z"/><path transform="scale(2 2)" d="M271.7 276.732C291.551 274.641 319.731 281.734 336.603 291.932C347.197 298.335 347.315 305.271 333.667 297.393C325.952 292.35 317.527 289.335 308.694 286.831C283.261 280.824 259.515 282.131 234.826 291.444C231.6 292.661 228.587 288.557 231.562 286.239C237.153 281.886 264.503 277.541 271.7 276.732Z"/><path fill="#EA7DFF" transform="scale(2 2)" d="M304.826 85.8701C311.492 86.1769 317.922 104.003 318.429 109.709C319.073 116.952 319.748 136.119 315.028 142.374C306.843 146.619 295.183 96.1555 304.826 85.8701Z"/><path fill="#EA7DFF" transform="scale(2 2)" d="M245.607 70.8978C248.562 71.5103 250.549 76.4925 251.993 78.8428C258.328 89.1497 261.789 117.335 253.211 125.81C246.695 127.226 233.206 81.3188 245.607 70.8978Z"/><path fill="#EA7DFF" transform="scale(2 2)" d="M374.86 138.989C384.575 141.279 382.824 156.767 382.809 164.146C382.789 174.023 378.034 183.132 373.091 191.391C361.984 199.717 364.358 150.091 374.86 138.989Z"/><path fill="#EA7DFF" transform="scale(2 2)" d="M125.417 242.768C140.482 241.663 155.551 252.627 160.97 266.354C165.088 277.178 156.961 272.902 152.026 269.975C141.568 263.317 131.642 255.847 119.923 251.696C103.559 245.901 115.195 243.043 125.417 242.768Z"/><path fill="#EA7DFF" transform="scale(2 2)" d="M194.056 102.165C206.474 107.544 207.842 148.208 200.131 153.906C189.684 155.017 183.407 109.528 194.056 102.165Z"/></svg>