<?xml version="1.0" encoding="utf-8" ?><svg xmlns="http://www.w3.org/2000/svg" xmlns:xlink="http://www.w3.org/1999/xlink" width="1024" height="1024" viewBox="0 0 1024 1024"><path transform="scale(2 2)" d="M262.814 77.3775C318.637 74.852 375.794 112.141 400.508 161.343C411.254 155.452 431.329 146.629 422.622 168.762C419.656 176.302 415.94 182.955 413.036 190.102C426.268 223.655 432.161 275.788 413.464 307.32C407.364 318.604 397.41 329.051 385.802 334.971C371.38 342.326 367.428 349.275 359.315 362.598C336.733 399.68 306.247 420.152 265.209 430.885C169.413 453.041 89.5064 365.195 86.1367 273.093C84.2326 221.049 101.377 177.068 136.346 138.691C169.615 102.18 213.356 79.3862 262.814 77.3775ZM355.887 337.217C353.458 333.249 350.961 328.707 348.598 324.612C329.309 300.106 321.15 298.025 295.338 283.75C277.257 273.75 245.375 251.062 247.832 226.725C249.05 215.77 258.75 209.238 269.421 210.681C286.187 212.949 299.825 243.129 313.691 255.575C318.117 251.263 322.356 246.317 327.215 242.533C324.97 238.293 324.614 234.047 326.015 229.459C331.143 212.66 362.3 188.449 376.881 176.192C369.632 159.972 358.977 144.467 344.957 133.495C362.991 142.329 373.428 154.072 384.145 170.857C386.889 169.123 388.724 167.951 391.633 166.514C389.215 160.74 385.252 155.177 381.759 149.971C353.727 108.191 308.913 87.1532 259.483 87.2478C249.866 88.1501 240.527 89.2267 231.138 91.6321C154.427 111.284 89.5427 190.366 97.0162 271.259C104.128 348.236 169.13 420.972 250.447 412.754C280.19 409.98 313.355 392.512 333.34 369.844C341.895 360.14 347.702 346.469 355.887 337.217ZM336.853 231.245C335.826 232.641 335.157 233.825 335.596 235.62C337.629 233.739 337.131 233.344 340.149 231.245C339.063 231.235 337.935 231.207 336.853 231.245ZM369.387 194.768C361.048 201.116 348.672 213.398 342.772 222.099C345.371 222.944 346.244 223.389 348.598 224.799C352.657 218.295 368.743 202.926 375.559 197.318C373.26 196.237 371.781 195.587 369.387 194.768ZM405.75 201.164C397.123 216.939 375.982 245.359 363.713 256.849C359.293 260.989 350.653 262.824 345.201 259.745L344.957 259.604C341.132 262.016 336.319 267.404 332.933 270.717C347.952 278.416 362.876 292.513 380.904 286.577C405.8 278.379 399.123 243.699 400.508 224.799C405.687 249.034 414.425 288.92 381.074 296.855C359.713 301.938 324.872 279.6 308.844 265.412C303.091 259.89 299.143 255.45 294.027 248.959C287.186 240.279 281.2 227.937 271.957 221.583C266.53 217.852 256.199 221.591 257.674 230.704C262.136 258.257 297.021 272.603 318.758 284.512C337.9 294.999 352.459 310.21 362.657 329.41C371.36 319.483 380.722 314.014 391.747 307.22C413.961 293.53 416.108 268.27 414.571 244.623C414.012 236.016 410.156 208.662 406.095 201.382L405.75 201.164Z"/><path transform="scale(2 2)" d="M259.483 316.826C259.595 316.813 259.706 316.799 259.817 316.786C302.966 317.205 304.922 399.597 265.209 402.348C225.472 403.212 215.649 323.151 259.483 316.826ZM267.729 328.493C245.328 318.097 235.476 355.252 243.146 373.742C248.126 385.746 258.53 396.981 272.011 389.627C268.811 389.187 265.562 389.327 262.491 387.951C242.48 378.987 243.332 338.555 267.729 328.493Z"/><path fill="#EA7DFF" transform="scale(2 2)" d="M267.729 328.493C288.384 339.261 288.957 381.214 272.011 389.627C268.811 389.187 265.562 389.327 262.491 387.951C242.48 378.987 243.332 338.555 267.729 328.493Z"/><path transform="scale(2 2)" d="M193.956 295.75C231.762 291.582 237.042 367.037 189.278 376.746C144.533 377.379 150.68 304.533 193.956 295.75ZM200.566 306.138C194.992 304.959 189.515 306.438 184.845 309.657C159.544 327.094 164.771 372.946 190.813 366.375C187.918 364.206 184.579 364.087 181.544 360.223C170.527 346.198 178.792 323.195 191.212 312.902C194.027 310.569 197.459 308.686 200.304 306.355L200.566 306.138Z"/><path fill="#EA7DFF" transform="scale(2 2)" d="M200.566 306.138C220.178 310.999 219.234 356.252 190.813 366.375C187.918 364.206 184.579 364.087 181.544 360.223C170.527 346.198 178.792 323.195 191.212 312.902C194.027 310.569 197.459 308.686 200.304 306.355L200.566 306.138Z"/><path transform="scale(2 2)" d="M146.536 224.799C186.934 224.009 182.478 300.044 139.809 304.148C135.348 304.766 128.105 302.257 124.56 299.498C98.107 278.902 115.386 229.552 146.536 224.799ZM155.04 236.974C150.392 234.13 147.247 233.915 142.251 236.318C112.963 250.404 116.327 299.912 143.495 293.676C119.971 280.033 132.317 244.625 155.04 236.974Z"/><path fill="#EA7DFF" transform="scale(2 2)" d="M155.04 236.974C172.575 246.618 164.538 287.811 143.495 293.676C119.971 280.033 132.317 244.625 155.04 236.974Z"/><path transform="scale(2 2)" d="M282.841 105.643C327.231 101.089 355.277 163.166 305.81 169.743C285.247 172.109 259.489 155.287 257.36 133.485C255.803 117.535 267.703 107.004 282.841 105.643ZM308.844 122.263C298.649 117.99 288.07 112.875 276.926 117.215C253.317 126.411 275.588 158.58 299.256 159.488C291.733 153.874 277.877 149.144 275.601 137.191C271.97 118.123 300.955 124.116 308.844 122.263Z"/><path fill="#EA7DFF" transform="scale(2 2)" d="M299.256 159.488C291.733 153.874 277.877 149.144 275.601 137.191C271.97 118.123 300.955 124.116 308.844 122.263C310.382 124.366 312.382 125.561 314.297 127.307C332.644 144.036 315.11 164.095 299.256 159.488Z"/><path fill="#EA7DFF" transform="scale(2 2)" d="M302.276 299.336C332.077 295.589 365.826 348.365 327.215 361.079C320.775 362.733 312.156 362.202 306.382 358.676C298.962 354.144 301.555 340.059 295.494 330.996C292.77 326.292 286.401 323.183 285.741 317.348C284.681 307.974 293.994 300.524 302.276 299.336Z"/><path transform="scale(2 2)" d="M212.879 117.982C227.083 117.33 239.12 128.332 239.742 142.538C240.364 156.744 229.335 168.757 215.128 169.348C200.964 169.938 188.995 158.95 188.375 144.787C187.755 130.624 198.717 118.632 212.879 117.982ZM215.129 159.5C223.791 158.879 230.331 151.388 229.779 142.721C229.226 134.054 221.788 127.454 213.117 127.937C204.347 128.426 197.656 135.968 198.215 144.733C198.774 153.499 206.368 160.129 215.129 159.5Z"/><path transform="scale(2 2)" d="M160.384 162.93C174.412 161.271 187.128 171.301 188.782 185.329C190.436 199.358 180.401 212.07 166.372 213.718C152.35 215.366 139.647 205.338 137.994 191.317C136.341 177.296 146.364 164.589 160.384 162.93ZM164.625 204C173.221 203.384 179.711 195.951 179.161 187.351C178.612 178.751 171.23 172.204 162.626 172.686C153.927 173.173 147.291 180.655 147.846 189.351C148.401 198.046 155.935 204.623 164.625 204Z"/><path fill="#EA7DFF" transform="scale(2 2)" d="M375.559 197.318C380.67 199.839 384.329 206.28 386.844 211.238C386.173 212.695 385.406 214.209 384.977 215.746C382.689 212.783 376.472 205.096 371.27 208.425C368.386 210.271 376.573 220.249 378.071 223.35C377.066 225.084 376.337 226.307 375.559 228.142C372.728 224.803 369.925 220.809 365.485 219.842C355.379 217.642 367.153 233.32 368.015 236.974C366.516 239.397 365.62 240.576 363.549 242.533C360.873 235.029 356.3 227.9 348.598 224.799C352.657 218.295 368.743 202.926 375.559 197.318Z"/><path fill="#EA7DFF" transform="scale(2 2)" d="M413.036 166.514L413.263 166.87C408.97 178.116 400.676 192.963 393.555 202.47C391.191 198.615 390.111 196.96 386.844 193.924C383.693 191.343 381.532 190.024 378.071 187.978C386.229 179.865 402.221 170.681 413.036 166.514Z"/><path fill="#EA7DFF" transform="scale(2 2)" d="M340.149 231.245C349.43 234.476 354.097 240.737 355.887 250.337C353.939 251.014 352.854 251.312 350.838 251.759C349.482 242.718 343.923 238.504 335.596 235.62C337.629 233.739 337.131 233.344 340.149 231.245Z"/><path fill="#EA7DFF" transform="scale(2 2)" d="M336.853 246.262C338.473 247.706 339.108 248.492 340.149 250.337C334.047 255.972 330.742 259.456 325.257 265.412C323.353 264.252 322.043 263.221 320.469 261.676C326.206 256.433 331.298 251.635 336.853 246.262Z"/></svg>