<?xml version="1.0" encoding="utf-8" ?><svg xmlns="http://www.w3.org/2000/svg" xmlns:xlink="http://www.w3.org/1999/xlink" width="1024" height="1024" viewBox="0 0 1024 1024"><path transform="scale(2 2)" d="M255.708 92.3339C262.004 91.7649 267.625 97.3426 267.556 103.618C267.49 109.675 264.614 110.67 261.183 114.208L260.93 114.472C260.855 123.364 262.354 132.743 261.347 141.563C300.857 141.392 345.349 146.614 376.944 172.583L384.841 126.822C385.552 122.897 387.526 110.078 389.006 107.31C390.212 106.359 391.455 106.043 392.888 105.609C396.068 106.813 406.182 119.755 408.184 123.427C408.49 123.989 407.979 130.934 407.899 132.215L403.787 207.22C402.696 227.146 430.303 223.893 440.955 236.339C453.183 250.627 448.228 261.506 446.255 276.718C444.685 288.823 438.278 318.627 432.626 330.076C424.906 345.715 408.291 352.444 391.644 351.249C387.806 365.883 379.223 383.419 368.688 394.334C347.194 416.606 286.962 418.815 256.875 418.732C226.005 418.8 193.955 417.947 164.633 406.927C136.413 396.322 130.598 377.781 120.098 353.612C76.9805 348.157 76.2293 324.052 67.5058 287.555C61.309 261.628 57.3276 236.532 89.4779 224.597C110.731 216.708 109.505 222.168 107.856 194.261L105.333 147.697C104.862 139.707 103.973 131.234 104.257 123.26C104.355 120.519 112.059 113.217 113.878 110.897C124.07 98.35 125.509 113.164 126.663 120.402L133.54 161.189C134.098 164.399 135.134 169.52 135.337 172.583C165.503 148.459 201.265 143.108 238.979 141.675C243.206 141.514 247.53 141.267 251.746 141.563C251.124 132.457 252.575 122.954 252.037 114.472C241.501 107.303 242.981 94.5837 255.708 92.3339ZM192.759 160.625C158.946 167.117 127.118 188.649 119.657 224.287C111.67 262.43 123.929 365.78 159.469 388.621C162.228 390.395 165.239 392.094 168.051 393.8C173.783 382.339 195.332 361.424 207.85 357.383C215.948 354.769 224.56 355.22 232.961 355.211L278.897 355.211C310.822 355.367 313.653 366.687 335.336 388.755C337.09 390.715 339.168 392.927 340.8 394.953C347.535 392.673 351.766 390.427 356.948 385.492C350.121 363.127 347.391 311.661 362.632 296.188C366.914 324.976 357.366 356.124 357.986 384.599C384.938 354.397 397.255 277.49 395.159 240.152C392.944 200.695 369.704 176.849 333.636 164.896C328.89 163.322 323.959 162.249 319.241 160.625L319.182 161.081C318.063 170.176 321.04 187.771 314.443 195.043C310.225 194.238 309.785 162.796 309.751 158.893C291.478 154.198 262.508 154.621 243.85 154.754C232.317 155.74 212.863 155.679 202.372 158.893C201.381 170.971 204.281 183.931 198.637 195.341C193.7 187.903 192.405 169.813 192.759 160.625ZM176.04 396.168C204.082 403.912 234.454 406.523 263.563 405.378C280.665 404.415 315.068 403.099 331.11 397.588C289.416 355.866 301.941 366.479 243.85 365.5L243.487 365.525C234.249 366.105 216 364.372 208.003 367.931C198.024 372.371 182.628 387.76 176.04 396.168ZM120.098 190.62C121.872 186.79 124.498 183.31 127.337 180.197C126.944 175.91 117.612 120.883 117.129 120.416C115.792 122.2 114.795 123.361 113.29 125.017C113.188 132.78 114.26 142.497 114.669 150.411L116.183 177.597C116.493 183.476 116.661 189.487 117.129 195.341C118.097 193.439 118.67 192.256 120.098 190.62ZM95.7861 318.354C94.6745 315.633 93.6945 312.853 92.5372 310.151C91.3167 311.2 89.8311 311.9 88.4031 312.672C89.5141 317.439 89.8693 318.739 92.5372 322.751C93.8767 320.685 94.3857 320.208 95.7861 318.354ZM84.6473 300.336C85.276 302.928 86.1533 306.195 87.0983 308.715C88.3011 307.758 89.5678 306.858 90.5379 305.683C89.265 302.405 88.9664 299.648 88.4031 296.188C87.0833 297.584 85.8709 298.856 84.6473 300.336ZM87.0983 278.54C85.1421 280.826 83.2331 282.945 81.1129 285.086C82.083 288.728 82.6956 292.498 83.6804 296.188C85.2647 294.236 86.7316 292.482 88.4031 290.592C87.032 285.448 87.1793 283.897 87.0983 278.54ZM93.7625 326.491C94.9124 327.949 97.4724 332.196 99.6421 331.087C98.371 327.933 97.6373 326.067 96.8391 322.751C95.9346 323.811 94.5131 325.386 93.7625 326.491ZM86.602 261.933C84.4066 265.073 79.8411 270.102 78.3194 272.842C79.1734 276.374 79.3758 278.198 81.1129 281.42C82.6088 278.956 85.1149 276.444 85.7965 274.211C85.5378 270.736 86.673 265.609 86.602 261.933ZM87.0983 259.015C86.7854 251.582 97.677 241.721 103.69 238.344C103.961 236.917 104.184 235.842 104.273 234.378C88.3505 238.822 69.4208 248.937 78.3194 268.678C80.2363 265.325 82.9507 259.664 87.0983 259.015ZM395.266 192.822C396.456 181.817 396.545 170.437 397.238 159.331L398.692 136.296C398.892 132.912 399.282 128.347 399.267 125.017C398.606 124.168 395.99 120.683 395.266 120.416C393.047 127.362 391.738 138.205 390.606 145.579L385.26 179.31C387.85 182.623 390.471 185.915 392.888 189.356L395.266 192.822Z"/><path transform="scale(2 2)" d="M248.501 207.005C279.685 205.007 321.781 212.43 351 221.653C379.25 230.571 375.068 238.399 369.939 261.849C368.188 269.855 367.533 278.922 363.799 286.191C357.001 298.691 297.452 314.134 284.09 317.496C277.284 319.218 270.302 319.669 263.563 321.234C241.456 321.279 230.416 319.43 209.053 312.942C198.631 309.776 155.262 294.302 148.802 287.714C144.856 283.689 140.984 256.931 139.95 250.429C138.949 244.134 136.064 235.763 141.344 230.644C156.009 216.429 223.071 206.49 248.501 207.005ZM364.44 241.098C361.209 230.565 333.193 226.147 323.096 223.819C271.095 211.826 216.366 213.356 165.505 229.798C160.113 231.534 152.427 234.074 147.742 237.194C147.874 248.036 151.764 265.479 154.158 276.129C154.55 277.872 154.888 279.639 155.035 281.42L160.399 283.856C168.276 288.323 182.02 293.169 190.618 296.383C237.322 313.838 255.61 316.841 302.319 303.304C310.659 300.887 352.649 287.257 355.72 281.957C357.535 278.823 365.346 244.426 364.44 241.098Z"/><path fill="#EA7DFF" transform="scale(2 2)" d="M155.035 241.098C157.151 240.025 159.562 239.015 161.803 238.168C223.921 214.711 292.899 218.556 355.557 237.876C357.298 238.412 363.634 241.137 364.44 241.098C365.346 244.426 357.535 278.823 355.72 281.957C352.649 287.257 310.659 300.887 302.319 303.304C255.61 316.841 237.322 313.838 190.618 296.383C182.02 293.169 168.276 288.323 160.399 283.856C157.009 267.485 154.909 257.906 155.035 241.098ZM295.481 249.18C306.453 252.653 307.241 266.732 295.481 269.997C296.859 274.755 299.616 275.848 304.305 275.748C317.838 272.713 318.301 252.177 312.708 248.984C309.579 247.768 303.247 247.572 300.084 247.754C298.295 248.19 297.22 248.55 295.481 249.18ZM229.003 252.822C229.072 267.479 225.065 288.683 205.969 285.774C207.821 287.704 211.467 289.306 214.029 289.459C231.756 290.517 233.12 268.703 234.08 256.35L234.119 255.887C232.249 253.907 231.418 253.858 229.003 252.822ZM329.247 251.968C327.617 252.394 326.433 252.614 324.75 252.822C324.537 268.831 323.615 279.193 305.723 285.086C308.92 290.297 317.814 288.878 321.59 285.055C330.606 275.928 328.913 263.496 329.247 251.968ZM220.756 250.479C216.618 248.838 212.072 248.19 207.639 247.754C214.132 257.805 212.778 272.305 198.637 268.678C200.907 271.834 203.889 275.774 207.639 277.107C220.113 280.168 220.806 258.339 220.756 250.479Z"/><path transform="scale(2 2)" d="M305.723 285.086C299.943 284.349 295.923 284.997 291.093 280.073C284.636 273.49 279.908 251.079 288.037 243.646C299.047 233.579 323.748 240.737 332.83 250.479C331.761 250.872 330.326 251.518 329.247 251.968C327.617 252.394 326.433 252.614 324.75 252.822C324.537 268.831 323.615 279.193 305.723 285.086ZM295.481 249.18C306.453 252.653 307.241 266.732 295.481 269.997C296.859 274.755 299.616 275.848 304.305 275.748C317.838 272.713 318.301 252.177 312.708 248.984C309.579 247.768 303.247 247.572 300.084 247.754C298.295 248.19 297.22 248.55 295.481 249.18Z"/><path transform="scale(2 2)" d="M205.969 285.774C192.495 281.852 184.21 263.289 188.096 249.804C191.849 236.784 225.734 234.806 233.652 252.476C234.102 253.478 234.56 254.817 234.119 255.887C232.249 253.907 231.418 253.858 229.003 252.822C229.072 267.479 225.065 288.683 205.969 285.774ZM198.637 268.678C200.907 271.834 203.889 275.774 207.639 277.107C220.113 280.168 220.806 258.339 220.756 250.479C216.618 248.838 212.072 248.19 207.639 247.754C214.132 257.805 212.778 272.305 198.637 268.678Z"/><path transform="scale(2 2)" d="M152.024 295.413C161.073 304.12 164.153 368.846 158.625 386.669C158.364 386.945 158.063 387.098 157.868 386.696C155.293 366.735 145.393 312.862 152.024 295.413Z"/><path transform="scale(2 2)" d="M231.565 380.776C245.243 379.828 227.036 394.504 222.668 396.168C212.138 398.979 218.98 383.873 231.565 380.776Z"/><path transform="scale(2 2)" d="M208.936 380.776C220.599 378.055 204.159 394.36 198.637 396.168C187.653 394.093 200.038 382.189 208.936 380.776Z"/><path transform="scale(2 2)" d="M259.323 380.776C270.437 378.144 256.807 393.481 250.766 396.168C240.762 396.553 250.168 382.432 259.323 380.776Z"/><path transform="scale(2 2)" d="M286.061 380.776C298.575 379.707 283.84 392.486 280.04 394.953C269.926 396.545 276.095 384.272 286.061 380.776Z"/><path transform="scale(2 2)" d="M309.148 380.776C317.333 382.772 307.386 392.324 303.538 393.8C300.599 393.87 300.614 392.713 300.084 390.268C300.688 384.474 303.575 381.95 309.148 380.776Z"/><path fill="#EA7DFF" transform="scale(2 2)" d="M409.281 234.378C412.152 235.108 414.475 236.682 416.984 237.479C434.429 243.025 436.495 249.425 433.997 267.248C432.182 264.914 420.904 249.534 419.509 258.494C419.078 261.259 430.713 271.837 432.918 274.211C432.313 276.612 431.876 278.99 431.408 281.42C429.928 278.884 424.275 271.397 421.209 270.215C419.216 269.538 417.355 271.503 418.286 273.402C420.975 278.884 426.281 282.78 430.167 287.388C429.766 290.195 429.139 293.367 428.645 296.188C427.765 294.997 415.541 277.134 414.259 286.145C413.837 289.106 424.368 298.737 426.378 301.907C425.74 304.625 425.348 307.366 425.175 310.151C422.136 306.625 419.774 302.831 416.804 299.221C415.231 297.586 412.276 296.112 411.738 299.393C411.178 302.814 420.48 313.356 422.875 316.402C421.971 319.017 421.142 321.602 419.959 324.105C418.094 321.333 413.315 312.073 411.377 311.81C402.078 310.547 415.857 327.908 416.804 329.116C415.255 330.711 413.32 332.327 411.58 333.706C410.73 331.39 407.133 322.535 403.928 323.579C399.066 325.162 405.391 333.041 406.376 336.426L406.495 336.841C402.62 337.702 399.927 337.952 395.985 337.971C403.388 307.698 408.611 280.865 409.442 249.216C409.574 244.21 408.589 239.458 409.281 234.378Z"/><path fill="#EA7DFF" transform="scale(2 2)" d="M87.0983 259.015C86.7854 251.582 97.677 241.721 103.69 238.344C103.919 247.368 103.258 256.867 103.833 266.041C105.079 285.904 109.193 318.841 115.776 337.971C110.052 337.978 107.409 336.746 101.977 334.775C104.224 331.771 107.369 327.166 106.813 323.2L106.492 322.842C104.763 323.134 101.847 329.292 99.6421 331.087C98.371 327.933 97.6373 326.067 96.8391 322.751C99.7451 318.982 102.014 312.95 95.7861 318.354C94.6745 315.633 93.6945 312.853 92.5372 310.151C93.2028 308.839 99.8537 301.923 95.0306 301.219C93.3665 301.634 91.7855 304.191 90.5379 305.683C89.265 302.405 88.9664 299.648 88.4031 296.188C89.8976 293.759 94.2768 289.501 94.5725 286.085C92.9854 282.841 89.2609 289.61 88.4031 290.592C87.032 285.448 87.1793 283.897 87.0983 278.54C89.2719 274.892 92.6305 269.058 85.9929 274.065L85.7965 274.211C85.5378 270.736 86.673 265.609 86.602 261.933C86.9485 260.833 87.374 260.015 87.0983 259.015Z"/></svg>